HIERARCHY
ROOT Hips
{
	OFFSET 0.000000 0.000000 0.000000 
	CHANNELS 6 Xposition Yposition Zposition Yrotation Zrotation Xrotation 
	JOINT Lumbar
	{
		OFFSET 0.000000 0.000000 0.000000 
		CHANNELS 3 Zrotation Xrotation Yrotation
		JOINT Neck
		{
			OFFSET 0.000000 0.445665 0.000000 
			CHANNELS 3 Zrotation Xrotation Yrotation
			End Site
			{
				OFFSET 0.000000 0.227535 0.000000 
			}
		}
		JOINT RightShoulder
		{
			OFFSET 0.019635 0.377685 0.194865 
			CHANNELS 3 Zrotation Xrotation Yrotation
			JOINT RightElbow
			{
				OFFSET 0.000000 -0.243375 0.000000 
				CHANNELS 2 Zrotation Yrotation
				JOINT RightWrist
				{
					OFFSET 0.000000 -0.264825 0.000000 
					CHANNELS 2 Zrotation Xrotation
					End Site
					{
						OFFSET 0.006600 -0.176220 0.000990 
					}
				}
			}
		}
		JOINT LeftShoulder
		{
			OFFSET 0.019635 0.377685 -0.194865 
			CHANNELS 3 Zrotation Xrotation Yrotation
			JOINT LeftElbow
			{
				OFFSET 0.000000 -0.243375 0.000000 
				CHANNELS 2 Zrotation Yrotation
				JOINT LeftWrist
				{
					OFFSET 0.000000 -0.264825 0.000000 
					CHANNELS 2 Zrotation Xrotation
					End Site
					{
						OFFSET 0.006600 -0.176220 -0.000990 
					}
				}
			}
		}
	}
	JOINT RightHip
	{
		OFFSET 0.052140 -0.069960 0.075570 
		CHANNELS 3 Zrotation Xrotation Yrotation
		JOINT RightKnee
		{
			OFFSET 0.000000 -0.402270 0.000000 
			CHANNELS 1 Zrotation
			JOINT RightAnkle
			{
				OFFSET 0.000000 -0.404085 0.000000 
				CHANNELS 3 Zrotation Xrotation Yrotation
				End Site
				{
					OFFSET 0.204105 -0.089430 0.008415 
				}
			}
		}
	}
	JOINT LeftHip
	{
		OFFSET 0.052140 -0.069960 -0.075570 
		CHANNELS 3 Zrotation Xrotation Yrotation
		JOINT LeftKnee
		{
			OFFSET 0.000000 -0.402270 0.000000 
			CHANNELS 1 Zrotation
			JOINT LeftAnkle
			{
				OFFSET 0.000000 -0.404085 0.000000 
				CHANNELS 3 Zrotation Xrotation Yrotation
				End Site
				{
					OFFSET 0.204105 -0.089430 -0.008415 
				}
			}
		}
	}
}
MOTION
Frames: 19
Frame Time: 0.02
0.00059 -0.00585 -0.01663 182.24603 -44.99955 1.5697 54.11536 0.20276 2.33855 -9.71034 -0.57793 -0.83079 -35.94715 -7.29941 4.67874 133.09943 114.52369 -40.98471 -7.38662 -30.24939 10.11558 -3.111 97.68728 -80.42589 -12.71487 3.33291 46.23564 -8.52834 -3.45204 -26.85598 -7.00733 -3.90286 -2.70577 51.57135 4.71961 1.28131 -25.00204 -7.57687 3.70515 2.60366
0.00124 -0.00622 -0.01089 181.93648 -44.66717 1.55934 53.68393 0.20334 2.25109 -10.04034 -0.54153 -0.83079 -35.45441 -7.20542 4.7836 132.86868 112.27077 -39.84723 -7.15222 -30.1459 10.27643 -3.40291 97.71718 -80.26932 -12.82515 2.73796 46.83123 -9.05531 -3.22095 -28.3474 -7.03332 -3.8134 -2.65844 51.17178 4.27969 1.07285 -25.11911 -7.54915 3.78947 2.65236
0.00219 -0.00672 -0.00505 181.69941 -44.28656 1.58207 53.16149 0.19101 2.15748 -10.32629 -0.53488 -0.83079 -35.17646 -7.14715 4.88991 132.68137 109.79502 -38.46654 -6.91014 -29.88864 10.49177 -3.79414 97.69257 -80.11696 -12.93698 2.01784 47.54741 -9.65262 -3.09167 -30.1167 -7.05864 -3.69939 -2.59795 50.73965 3.72492 0.45056 -25.2515 -7.53956 3.91629 2.72762
0.00304 -0.00716 0.00069 181.42476 -43.92032 1.58536 52.67051 0.18335 2.05671 -10.62636 -0.51346 -0.83079 -34.79479 -7.09573 5.01541 132.45826 107.36925 -37.19579 -6.66458 -29.70598 10.69735 -4.14972 97.70293 -79.84728 -13.07325 1.36861 48.22452 -10.21033 -2.90592 -31.78638 -7.08726 -3.59555 -2.54299 50.31881 3.23898 0.06336 -25.37689 -7.5197 4.0188 2.78766
0.00377 -0.00761 0.00665 181.16774 -43.58311 1.60799 52.21836 0.18027 1.99853 -10.94954 -0.49538 -0.83079 -34.41396 -6.95465 5.06819 132.29748 105.14345 -35.91909 -6.44916 -29.49894 10.84118 -4.4696 97.67137 -80.02922 -13.10745 0.65721 48.84039 -10.80292 -2.75402 -33.35961 -7.10444 -3.49538 -2.48969 49.91039 2.68349 -0.51097 -25.50335 -7.50743 4.14171 2.86045
0.00481 -0.00805 0.01216 180.89273 -43.17715 1.59717 51.66688 0.16514 1.85044 -11.21504 -0.47836 -0.83079 -34.09562 -7.00401 5.26424 132.01955 102.4662 -34.59435 -6.1694 -29.30739 11.12726 -4.88602 97.71277 -79.311 -13.34213 0.04732 49.6078 -11.33609 -2.56264 -35.18276 -7.14389 -3.38251 -2.4302 49.47078 2.24624 -0.80011 -25.63021 -7.48423 4.23233 2.91317
0.00672 -0.00845 0.01651 180.5412 -42.56791 1.49531 50.83901 0.11513 1.45016 -11.32886 -0.45455 -0.83079 -33.85161 -7.59293 5.90844 131.40383 98.45721 -33.26882 -5.70739 -29.2025 11.7757 -5.54033 97.98146 -75.79536 -14.26112 -0.25998 50.79616 -11.71783 -2.19589 -37.75809 -7.25691 -3.23325 -2.35325 48.93476 2.1522 -0.17745 -25.7626 -7.4241 4.22534 2.90446
0.00891 -0.00881 0.02037 180.17099 -41.89627 1.35719 49.91943 0.05422 0.9608 -11.3868 -0.43152 -0.83079 -33.6739 -8.36724 6.68588 130.66995 94.03098 -31.89169 -5.1821 -29.11826 12.56731 -6.28779 98.32336 -71.43867 -15.3559 -0.45982 52.12602 -12.0316 -1.79391 -40.54832 -7.39039 -3.0735 -2.27127 48.37221 2.18276 0.74026 -25.89326 -7.35292 4.18425 2.87467
0.01092 -0.00916 0.02437 179.81543 -41.26941 1.22913 49.05733 0.0016 0.51518 -11.4728 -0.4099 -0.83079 -33.49956 -9.04115 7.36696 129.99351 89.88419 -30.49326 -4.68958 -29.02093 13.30525 -6.99571 98.62327 -67.66386 -16.2888 -0.70184 53.37046 -12.35714 -1.43661 -43.15717 -7.50634 -2.92315 -2.19383 47.8335 2.16386 1.50728 -26.01943 -7.28834 4.15751 2.85422
0.0132 -0.00963 0.0287 179.4362 -40.57013 1.12812 48.12341 -0.06506 0.05424 -11.54658 -0.38161 -0.83079 -33.19359 -9.78469 8.20002 129.3034 85.33859 -29.27618 -4.17908 -28.93295 14.00057 -7.69833 98.95715 -63.02095 -17.57862 -0.97254 54.7105 -12.76655 -0.96374 -46.13831 -7.65594 -2.75187 -2.1061 47.24282 2.1118 2.33276 -26.16867 -7.21754 4.13667 2.83549
0.01495 -0.00984 0.03223 179.10111 -40.00924 0.96323 47.32086 -0.1055 -0.39411 -11.63236 -0.36728 -0.83079 -33.17143 -10.42662 8.74731 128.61228 81.54221 -27.67086 -3.69213 -28.83345 14.81348 -8.42909 99.23954 -60.01798 -18.15315 -1.16117 55.88066 -12.98334 -0.71942 -48.38006 -7.74167 -2.62264 -2.03918 46.75588 2.15855 3.10862 -26.26891 -7.15709 4.09542 2.80809
0.01526 -0.00934 0.03374 178.89023 -39.83114 0.61803 46.88395 -0.06555 -0.80063 -11.77202 -0.38891 -0.83079 -33.94554 -10.7429 8.48082 127.95607 79.7932 -25.02158 -3.27657 -28.68911 15.95375 -9.2462 99.3517 -61.4588 -16.83472 -1.10489 56.56999 -12.69245 -1.13624 -48.62478 -7.63436 -2.6067 -2.02749 46.55015 2.45976 3.70492 -26.23729 -7.12577 4.00149 2.75965
0.015 -0.00859 0.03445 178.72449 -39.79727 0.21221 46.58654 0.00027 -1.18831 -11.92466 -0.42477 -0.83079 -34.99643 -10.94999 7.92165 127.30198 78.83705 -21.98275 -2.88855 -28.53472 17.19989 -10.08217 99.41136 -64.61791 -14.77331 -0.97563 57.07849 -12.20862 -1.77995 -48.10009 -7.46413 -2.63433 -2.03747 46.45179 2.85438 4.23765 -26.15587 -7.10555 3.8889 2.70352
0.01495 -0.00796 0.03548 178.53919 -39.70743 -0.15791 46.23851 0.05082 -1.57529 -12.06683 -0.45565 -0.83079 -35.90092 -11.20707 7.48992 126.63984 77.59973 -19.11212 -2.49401 -28.39094 18.37279 -10.88821 99.50238 -67.20031 -12.962 -0.91066 57.65432 -11.80741 -2.30505 -47.86028 -7.33047 -2.646 -2.04004 46.31255 3.19894 4.78209 -26.09507 -7.08163 3.78767 2.65223
0.01515 -0.00731 0.03668 178.34919 -39.57564 -0.56451 45.8332 0.11574 -2.0057 -12.22601 -0.48069 -0.83079 -36.89557 -11.47029 7.08213 125.99987 76.01251 -16.27266 -2.07227 -28.22229 19.65763 -11.7872 99.56558 -68.95447 -11.50064 -0.71795 58.2983 -11.42395 -2.89381 -47.89465 -7.16429 -2.64209 -2.03275 46.14026 3.58012 5.40901 -26.04235 -7.05178 3.67299 2.59446
0.01466 -0.00664 0.03732 178.17998 -39.56543 -0.90803 45.58164 0.15713 -2.33848 -12.35398 -0.52078 -0.83079 -37.76641 -11.69089 6.55853 125.32035 75.34914 -13.28166 -1.71415 -28.10277 20.73157 -12.49652 99.67165 -72.77362 -9.16403 -0.76614 58.75496 -10.96023 -3.40504 -47.18116 -7.05008 -2.67985 -2.05046 46.06103 3.90533 5.84536 -25.96145 -7.03692 3.58246 2.54873
0.01248 -0.0059 0.03664 178.05675 -39.86357 -1.07122 45.72023 0.12635 -2.41903 -12.38948 -0.60285 -0.83079 -38.23373 -11.83293 5.74002 124.49146 77.02882 -9.92673 -1.52958 -28.12221 21.20327 -12.66925 99.92295 -82.56983 -4.30932 -1.57836 58.74195 -10.30755 -3.63786 -44.51427 -7.09952 -2.83363 -2.13868 46.22635 4.05546 5.76957 -25.81099 -7.06187 3.56211 2.53727
0.00962 -0.00516 0.03539 177.95298 -40.2778 -1.16715 46.00923 0.07137 -2.39916 -12.39396 -0.69878 -0.83079 -38.56506 -11.93305 4.82274 123.63014 79.61111 -6.44287 -1.40818 -28.19143 21.45619 -12.65051 100.21618 -94.26735 1.35127 -2.622 58.54507 -9.58345 -3.78494 -41.13521 -7.20247 -3.02606 -2.25026 46.47897 4.14527 5.50351 -25.63464 -7.10136 3.56705 2.53843
0.00702 -0.00444 0.03436 177.84071 -40.63419 -1.28782 46.2301 0.02786 -2.41642 -12.41502 -0.78585 -0.83079 -38.95476 -12.04272 3.98112 122.81093 81.79722 -3.04221 -1.25437 -28.2369 21.80585 -12.72556 100.48071 -104.63246 6.45482 -3.50575 58.42973 -8.9024 -3.97934 -38.13033 -7.27771 -3.1928 -2.3465 46.68295 4.26021 5.32342 -25.47277 -7.13347 3.56136 2.53452
